<svg xmlns="http://www.w3.org/2000/svg" viewBox="0 0 512 512"><!--!Font Awesome Free 6.5.2 by @fontawesome - https://fontawesome.com License - https://fontawesome.com/license/free Copyright 2024 Fonticons, Inc.--><path fill="#ffffff" d="M457 344.4c-25.1 20.3-52.6 37.2-82.5 49.1l54.4 94.2 54 23c9.8 4.2 20.9-2.2 22.2-12.8l7-58.3-55-95.2zm42.5-94.6c4.9-7.7 1.9-18-6.1-22.4l-28.1-15.6c-7.5-4.2-16.6-1.5-21.3 5.7C403 281.2 332.3 320 256 320c-23.9 0-47.2-4.3-69.4-11.5l67.4-116.7c.7 0 1.3 .2 2 .2s1.4-.2 2-.2l51.1 88.5c31.2-9 59.6-25.8 82.6-48.9l-51.8-89.7C347.4 128 352 112.6 352 96c0-53-43-96-96-96s-96 43-96 96c0 16.6 4.6 32 12.1 45.7l-68.3 118.3c-12.6-11.6-24-24.6-33.7-39-4.8-7.1-14-9.6-21.4-5.3l-27.8 16.1c-7.9 4.5-10.6 14.9-5.6 22.5 15.6 23.6 34.7 44.2 56 62L0 439.7l7 58.3c1.3 10.6 12.4 17 22.2 12.8l54-23 70.8-122.6C186.1 377.3 220.6 384 256 384c99.1 0 190.9-51 243.5-134.1zM256 64c17.7 0 32 14.3 32 32s-14.3 32-32 32-32-14.3-32-32 14.3-32 32-32z"/></svg>