<svg xmlns="http://www.w3.org/2000/svg" viewBox="0 0 512 512"><!--!Font Awesome Free 6.5.2 by @fontawesome - https://fontawesome.com License - https://fontawesome.com/license/free Copyright 2024 Fonticons, Inc.--><path fill="#ffffff" d="M109.5 244l134.6-134.6-44.1-44.1-61.7 61.7a7.9 7.9 0 0 1 -11.2 0l-11.2-11.2c-3.1-3.1-3.1-8.1 0-11.2l61.7-61.7-33.6-33.7C131.5-3.1 111.4-3.1 99 9.3L9.3 99c-12.4 12.4-12.4 32.5 0 44.9l100.2 100.2zm388.5-116.8c18.8-18.8 18.8-49.2 0-67.9l-45.3-45.3c-18.8-18.8-49.2-18.8-68 0l-46 46 113.2 113.2 46-46zM316.1 82.7l-297 297L.3 487.1c-2.5 14.5 10.1 27.1 24.6 24.6l107.5-18.8L429.3 195.9 316.1 82.7zm186.6 285.4l-33.6-33.6-61.7 61.7c-3.1 3.1-8.1 3.1-11.2 0l-11.2-11.2c-3.1-3.1-3.1-8.1 0-11.2l61.7-61.7-44.1-44.1L267.9 402.5l100.2 100.2c12.4 12.4 32.5 12.4 44.9 0l89.7-89.7c12.4-12.4 12.4-32.5 0-44.9z"/></svg>