<svg xmlns="http://www.w3.org/2000/svg" viewBox="0 0 448 512"><!--!Font Awesome Free 6.5.2 by @fontawesome - https://fontawesome.com License - https://fontawesome.com/license/free Copyright 2024 Fonticons, Inc.--><path fill="#ffffff" d="M448 432V80c0-26.5-21.5-48-48-48H48C21.5 32 0 53.5 0 80v352c0 26.5 21.5 48 48 48h352c26.5 0 48-21.5 48-48zM112 192c-8.8 0-16-7.2-16-16v-32c0-8.8 7.2-16 16-16h128c8.8 0 16 7.2 16 16v32c0 8.8-7.2 16-16 16H112zm0 96c-8.8 0-16-7.2-16-16v-32c0-8.8 7.2-16 16-16h224c8.8 0 16 7.2 16 16v32c0 8.8-7.2 16-16 16H112zm0 96c-8.8 0-16-7.2-16-16v-32c0-8.8 7.2-16 16-16h64c8.8 0 16 7.2 16 16v32c0 8.8-7.2 16-16 16h-64z"/></svg>